<?xml version="1.0" encoding="UTF-8"?>
<svg id="Layer_1" xmlns="http://www.w3.org/2000/svg" version="1.1" xmlns:xlink="http://www.w3.org/1999/xlink" viewBox="0 0 371 133.4">
  <!-- Generator: Adobe Illustrator 29.1.0, SVG Export Plug-In . SVG Version: 2.1.0 Build 142)  -->
  <defs>
    <style>
      .st0 {
        fill: #512e88;
      }

      .st1 {
        fill: url(#linear-gradient);
      }
    </style>
    <linearGradient id="linear-gradient" x1="108.1" y1="126.3" x2="44.6" y2="16.3" gradientUnits="userSpaceOnUse">
      <stop offset="0" stop-color="#263472"/>
      <stop offset="0" stop-color="#2f326c"/>
      <stop offset=".3" stop-color="#5e2b53"/>
      <stop offset=".5" stop-color="#822640"/>
      <stop offset=".7" stop-color="#9c2332"/>
      <stop offset=".9" stop-color="#ac2029"/>
      <stop offset="1" stop-color="#b22027"/>
    </linearGradient>
  </defs>
  <g id="_x23_ffffffff">
    <path class="st1" d="M54.3,12.4C62.3,4.3,73.8-.3,85.2,0c12.7.2,25.2,6.4,32.8,16.6,5.7,7.4,8.8,16.7,8.8,26.1-.1,8.5-2.7,17-7.6,24,6.2,8.9,8.8,20.2,7,30.9-1.8,12.2-9.4,23.5-20.1,29.7-13.5,8.2-31.6,8-44.8-.7-4-2.4-7.2-5.8-10.5-9.1-9.1-9.1-18.2-18.1-27.2-27.3,4.3-4.2,8.5-8.5,12.7-12.7,10.5,10.4,20.9,21,31.5,31.4,8.7,8.4,23.8,8.4,32.7.2,8.4-7.3,10.6-20.4,5.1-30.1-12.7,7.5-29.5,7.1-41.9-.8-5.7-3.5-10.1-8.6-14.8-13.4,9.6-9.4,19-19,28.5-28.4,2-1.9,4.9-2.8,7.6-2.3,4.3.7,7.9,4.8,7.5,9.3,0,3-1.8,5.5-3.9,7.4-4.5,4.4-8.8,8.9-13.3,13.2,9.5,5.2,22.4,1.7,28.6-7.1,7-9.1,6.1-23-1.9-31.2-5.8-6.3-15.1-9.1-23.5-7-4.5,1.1-8.7,3.5-11.9,6.8-17.9,18-36,35.9-53.9,54-4.3-4.2-8.6-8.5-12.8-12.8C18.1,48.6,36.2,30.5,54.3,12.4Z"/>
  </g>
  <g>
    <path class="st0" d="M162,37.6h-6.3v19.8h1.1v.5h-8.9v-.5h1.4V18h-1.4v-.4h14.8c13.6.2,13.1,20.7-.7,20.1ZM162,18h-6.4v19.2h6.3c7-3,6.3-15.2,0-19.2Z"/>
    <path class="st0" d="M197.1,34.5v22.9h1v.4h-8.2v-.4h1v-3.2c-2.2,2.3-5.2,3.7-8.7,3.7s-1.5,0-2.3-.2c-5.8-1.4-9.6-6.1-9.6-11.6s4-10.4,9.5-11.6c1.1-.2,1.7-.3,2.4-.3,3.4,0,6.4,1.4,8.7,3.7v-3.3h-1v-.4h8.2v.4h-1ZM191,38.4c-2.2-2.4-5.2-3.9-8.7-3.9s-5.3,7.7-5.3,11.5,0,11.4,5.3,11.4,6.4-1.5,8.7-3.9v-15.1Z"/>
    <path class="st0" d="M213.9,57.2c-1.2.5-2.5.7-3.8.7-3.4-.1-6-1.2-7.7-2.8-.7-.7-1.2-1.4-1.2-2.5,0-1.8,1.4-3.2,3.1-3.2s3.2,1.4,3.2,3.2-1.4,3.1-3.2,3.1-.4,0-.5,0c1.6,1.1,3.6,1.7,6.3,1.9,2.5,0,5.9-1.4,5-4.7-.3-.9-1.1-1.5-2-2l-6.8-2.9c-2.4-.9-5.2-3.5-5.2-7.1.2-4.3,4.8-6.9,8.8-6.9s5.7,1.2,7.3,3.1v-.8h.5v2.3h-.5v-.8c-1.5-2.1-4.1-3.5-7.3-3.5s-1.8,0-2.8.4c-1.9.8-2.7,2.7-2.1,4.2.3.8,1.1,1.4,1.8,1.9.4.2.9.5,1.3.6l6,2.6c1.1.5,4.5,2.3,4.9,6.1,0,3.3-2,5.6-5.1,7Z"/>
    <path class="st0" d="M229,57.5h1.1v.4h-8.3v-.4h1.1v-22.9h-1.1v-.5h8.3v.5h-1.1v22.9ZM222.9,27.6c0-1.7,1.4-3,3-3s3,1.4,3,3-1.4,3-3,3-3-1.3-3-3Z"/>
    <path class="st0" d="M245.7,57.9c-6.2,0-11.9-5.2-11.9-11.9s4-10.6,9.5-11.7c.5-.1.9-.1,1.4-.2,6.5-.5,13,4.5,13,11.4s-5.1,12.4-11.9,12.4ZM251.1,46.1c0-3.2-.6-10.8-4.8-11.8-.3,0-.6,0-1,0-3.7.9-4.9,8-4.9,11.8s-.2,11.3,5.3,11.3,5.4-7.7,5.4-11.3ZM250.8,26.1c.6,1.3,0,2.9-1.3,3.5-.7.3-3,.6-5.1.9-1.2.1-2.6.3-4,.4,1-1,2-2,3-2.8,1.6-1.5,3.2-3,4-3.3,1.2-.6,2.9,0,3.5,1.3Z"/>
    <path class="st0" d="M287.7,57.5v.4h-8v-.4h1v-13.5c-.1-2.7-.7-9.2-4.8-9.2s-5.5,1.2-7.2,3v19.8h1v.4h-8.4v-.4h1v-22.9h-1v-.5h8.4v.5h-1v2.6c1.9-1.9,4.4-3,7.2-3,6,0,10.2,4.9,10.6,10.9v12.3h1.1Z"/>
    <path class="st0" d="M175.2,104.9c-.4,5.7-5,10.1-10.9,10.1h-16.7v-.5h1.4v-39.4h-1.4v-.5h14.8c4.9.4,10.3,4.1,10.3,9.9s-3.2,8.6-7.8,9.7c5.5,0,10.1,4.9,10.3,10.6ZM155.4,94.3h6.5c6.6-1.5,6.5-16.5,0-19.2h-6.5v19.2ZM163.1,94.7h-7.7v19.8h8.2c7.5-3.1,7.2-16.7-.6-19.8Z"/>
    <path class="st0" d="M205.6,91.6v22.9h1v.4h-8.2v-.4h1v-3.2c-2.2,2.3-5.2,3.7-8.7,3.7s-1.5,0-2.3-.2c-5.8-1.4-9.6-6.1-9.6-11.6s4-10.4,9.5-11.6c1.1-.2,1.7-.3,2.4-.3,3.4,0,6.4,1.4,8.7,3.7v-3.3h-1v-.4h8.2v.4h-1ZM199.4,95.6c-2.2-2.4-5.2-3.9-8.7-3.9s-5.3,7.7-5.3,11.5,0,11.4,5.3,11.4,6.4-1.5,8.7-3.9v-15.1Z"/>
    <path class="st0" d="M217.5,114.5h1.1v.5h-8.2v-.5h1.1v-39.5h-1.1v-.4h8.2v.4h-1.1v39.5Z"/>
    <path class="st0" d="M242,110h.4v2.2h-.4v-.8c-2,2.1-5,3.4-8.1,3.5-1.2,0-1.8,0-3.3-.3-5.3-1.2-9-6.1-9-11.6s3.9-10.4,9.4-11.7h0c1.3-.2,1.9-.2,2.5-.2,3,0,5.7,1,7.8,2.9.1,0,0,0,.2.2.2.2.4.5.5.8.3.4.4.9.4,1.4,0,1.7-1.4,3-3.1,3s-3-1.3-3-3,1.3-3.1,3-3.1h.1c-1.8-1.1-3.8-1.7-6-1.7-5.3,0-5.2,11.1-5.2,13.2s1,9.7,5.2,9.7,6.4-1.5,8.5-3.9v-.6Z"/>
    <path class="st0" d="M274.1,91.6v22.9h1v.4h-8.2v-.4h1v-3.2c-2.2,2.3-5.2,3.7-8.7,3.7s-1.5,0-2.3-.2c-5.8-1.4-9.6-6.1-9.6-11.6s4-10.4,9.5-11.6c1.1-.2,1.7-.3,2.4-.3,3.4,0,6.4,1.4,8.7,3.7v-3.3h-1v-.4h8.2v.4h-1ZM268,95.6c-2.2-2.4-5.2-3.9-8.7-3.9s-5.3,7.7-5.3,11.5,0,11.4,5.3,11.4,6.4-1.5,8.7-3.9v-15.1ZM266.1,83.2c.6,1.3,0,2.9-1.3,3.5-.7.3-3,.6-5.1.9-1.2.1-2.6.3-4,.4,1-1,2-2,3-2.8,1.6-1.5,3.2-3,4-3.3,1.2-.6,2.9,0,3.5,1.3Z"/>
    <path class="st0" d="M305,114.6v.4h-8v-.4h1v-13.5c-.1-2.7-.7-9.2-4.8-9.2s-5.5,1.2-7.2,3v19.8h1v.4h-8.4v-.4h1v-22.9h-1v-.5h8.4v.5h-1v2.6c1.9-1.9,4.4-3,7.2-3,6,0,10.2,4.9,10.6,10.9v12.3h1.1Z"/>
    <path class="st0" d="M316.2,114.6h1.1v.4h-8.3v-.4h1.1v-22.9h-1.1v-.5h8.3v.5h-1.1v22.9ZM310.1,84.7c0-1.7,1.4-3,3-3s3,1.4,3,3-1.4,3-3,3-3-1.3-3-3Z"/>
    <path class="st0" d="M340.4,110h.4v2.2h-.4v-.8c-2,2.1-5,3.4-8.1,3.5-1.2,0-1.8,0-3.3-.3-5.3-1.2-9-6.1-9-11.6s3.9-10.4,9.4-11.7h0c1.3-.2,1.9-.2,2.5-.2,3,0,5.7,1,7.8,2.9.1,0,0,0,.2.2.2.2.4.5.5.8.3.4.4.9.4,1.4,0,1.7-1.4,3-3.1,3s-3-1.3-3-3,1.3-3.1,3-3.1h.1c-1.8-1.1-3.8-1.7-6-1.7-5.3,0-5.2,11.1-5.2,13.2s1,9.7,5.2,9.7,6.4-1.5,8.5-3.9v-.6Z"/>
    <path class="st0" d="M370,91.6v22.9h1v.4h-8.2v-.4h1v-3.2c-2.2,2.3-5.2,3.7-8.7,3.7s-1.5,0-2.3-.2c-5.8-1.4-9.6-6.1-9.6-11.6s4-10.4,9.5-11.6c1.1-.2,1.7-.3,2.4-.3,3.4,0,6.4,1.4,8.7,3.7v-3.3h-1v-.4h8.2v.4h-1ZM363.9,95.6c-2.2-2.4-5.2-3.9-8.7-3.9s-5.3,7.7-5.3,11.5,0,11.4,5.3,11.4,6.4-1.5,8.7-3.9v-15.1Z"/>
  </g>
</svg>