<?xml version="1.0" encoding="UTF-8"?>
<svg xmlns="http://www.w3.org/2000/svg" viewBox="0 0 135 135">
  <defs>
    <linearGradient id="pb-mark-gradient" x1="108.1" y1="126.3" x2="44.6" y2="16.3" gradientUnits="userSpaceOnUse">
      <stop offset="0" stop-color="#263472"/>
      <stop offset="0" stop-color="#2f326c"/>
      <stop offset=".3" stop-color="#5e2b53"/>
      <stop offset=".5" stop-color="#822640"/>
      <stop offset=".7" stop-color="#9c2332"/>
      <stop offset=".9" stop-color="#ac2029"/>
      <stop offset="1" stop-color="#b22027"/>
    </linearGradient>
  </defs>
  <path fill="url(#pb-mark-gradient)" d="M54.3,12.4C62.3,4.3,73.8-.3,85.2,0c12.7.2,25.2,6.4,32.8,16.6,5.7,7.4,8.8,16.7,8.8,26.1-.1,8.5-2.7,17-7.6,24,6.2,8.9,8.8,20.2,7,30.9-1.8,12.2-9.4,23.5-20.1,29.7-13.5,8.2-31.6,8-44.8-.7-4-2.4-7.2-5.8-10.5-9.1-9.1-9.1-18.2-18.1-27.2-27.3,4.3-4.2,8.5-8.5,12.7-12.7,10.5,10.4,20.9,21,31.5,31.4,8.7,8.4,23.8,8.4,32.7.2,8.4-7.3,10.6-20.4,5.1-30.1-12.7,7.5-29.5,7.1-41.9-.8-5.7-3.5-10.1-8.6-14.8-13.4,9.6-9.4,19-19,28.5-28.4,2-1.9,4.9-2.8,7.6-2.3,4.3.7,7.9,4.8,7.5,9.3,0,3-1.8,5.5-3.9,7.4-4.5,4.4-8.8,8.9-13.3,13.2,9.5,5.2,22.4,1.7,28.6-7.1,7-9.1,6.1-23-1.9-31.2-5.8-6.3-15.1-9.1-23.5-7-4.5,1.1-8.7,3.5-11.9,6.8-17.9,18-36,35.9-53.9,54-4.3-4.2-8.6-8.5-12.8-12.8C18.1,48.6,36.2,30.5,54.3,12.4Z"/>
</svg>
